<svg width="37" height="38" viewBox="0 0 37 38" fill="none" xmlns="http://www.w3.org/2000/svg">
<path d="M10.2104 31.2449L10.7693 31.5762C13.1179 32.97 15.8104 33.7071 18.5563 33.7086H18.5622C26.9949 33.7086 33.8581 26.847 33.8613 18.4138C33.8626 14.3267 32.2729 10.4841 29.3843 7.59288C26.4956 4.70221 22.6549 3.10917 18.5677 3.10747C10.1287 3.10747 3.26547 9.96801 3.26228 18.4012C3.26117 21.2911 4.06958 24.1056 5.60129 26.5405L5.96535 27.1193L4.41942 32.7632L10.2104 31.2449ZM0.000213623 37.135L2.61157 27.5998C1.00086 24.8091 0.153502 21.6433 0.154828 18.4004C0.158755 8.25441 8.4156 0 18.5626 0C23.4864 0.00212236 28.108 1.9184 31.5833 5.39664C35.0583 8.87483 36.9715 13.4982 36.9699 18.4152C36.9656 28.5607 28.707 36.8167 18.5626 36.8167C18.5619 36.8167 18.563 36.8167 18.5626 36.8167H18.5548C15.4742 36.8156 12.4471 36.0428 9.75862 34.5765L0.000213623 37.135Z" fill="white"/>
<path d="M0.789188 18.4101C0.788073 21.5405 1.60603 24.5968 3.16136 27.2911L0.640198 36.4963L10.0603 34.0263C12.6558 35.4406 15.5779 36.1873 18.5519 36.1882H18.5596C28.3532 36.1882 36.3248 28.2188 36.3291 18.424C36.3309 13.6773 34.4842 9.21457 31.129 5.85646C27.7743 2.49883 23.3129 0.648713 18.5588 0.646484C8.76459 0.646484 0.792989 8.6149 0.788744 18.4101L0.789188 18.4101ZM18.5593 36.1881H18.5595H18.5593C18.5591 36.1881 18.5589 36.1881 18.5593 36.1881Z" fill="url(#paint0_linear)"/>
<path d="M0.154615 18.4039C0.1535 21.6468 1.00085 24.8129 2.61157 27.6033L0 37.138L9.7581 34.5794C12.4468 36.0456 15.4736 36.8183 18.5542 36.8196H18.5621C28.7065 36.8196 36.9651 28.5636 36.9694 18.4182C36.9711 13.5009 35.0579 8.8776 31.5828 5.39957C28.1072 1.92155 23.486 0.00505205 18.5621 0.00292969C8.41561 0.00292969 0.15855 8.25734 0.154305 18.4033L0.154615 18.4039ZM5.96534 27.1225L5.60108 26.5439C4.06937 24.1087 3.26096 21.2943 3.26208 18.4047C3.26542 9.972 10.1285 3.11092 18.5675 3.11092C22.6542 3.11251 26.4951 4.70572 29.3841 7.59633C32.2729 10.4871 33.8624 14.3301 33.8613 18.4167C33.8576 26.8499 26.9944 33.7115 18.5617 33.7115H18.5557C15.81 33.7099 13.1172 32.9729 10.7688 31.5793L10.2099 31.248L4.41898 32.7662L5.96534 27.1225ZM18.5621 36.8196H18.5623H18.5621C18.5619 36.8196 18.5617 36.8196 18.5621 36.8196Z" fill="url(#paint1_linear)"/>
<path fill-rule="evenodd" clip-rule="evenodd" d="M13.9617 10.7107C13.6171 9.94475 13.2545 9.92942 12.9267 9.91595C12.6585 9.90454 12.3517 9.90528 12.0453 9.90528C11.7385 9.90528 11.2403 10.0204 10.8189 10.4807C10.3972 10.9409 9.209 12.0535 9.209 14.3163C9.209 16.5794 10.8573 18.766 11.087 19.0732C11.317 19.3798 14.2689 24.172 18.9434 26.0154C22.8287 27.5475 23.6194 27.2428 24.4626 27.166C25.3059 27.0894 27.1839 26.0538 27.567 24.9797C27.9504 23.9059 27.9504 22.9854 27.8354 22.7931C27.7205 22.6015 27.4137 22.4863 26.9538 22.2565C26.4937 22.0264 24.2326 20.9137 23.8111 20.7602C23.3893 20.6069 23.0827 20.5303 22.7759 20.9908C22.4693 21.4507 21.5885 22.4863 21.3201 22.7931C21.0518 23.1005 20.7834 23.1389 20.3235 22.9088C19.8634 22.678 18.3821 22.1928 16.6248 20.6262C15.2575 19.4071 14.3344 17.9016 14.066 17.4411C13.7978 16.9812 14.0374 16.732 14.268 16.5027C14.4746 16.2966 14.7281 15.9657 14.9581 15.6973C15.1876 15.4287 15.2642 15.237 15.4175 14.9302C15.571 14.6232 15.4942 14.3546 15.3793 14.1246C15.2642 13.8945 14.3704 11.6201 13.9614 10.7106" fill="white"/>
<defs>
<linearGradient id="paint0_linear" x1="18.4848" y1="36.4926" x2="18.4848" y2="0.642717" gradientUnits="userSpaceOnUse">
<stop stop-color="#20B038"/>
<stop offset="1" stop-color="#60D66A"/>
</linearGradient>
<linearGradient id="paint1_linear" x1="18.4849" y1="37.1391" x2="18.4849" y2="0.00404525" gradientUnits="userSpaceOnUse">
<stop stop-color="#F9F9F9"/>
<stop offset="1" stop-color="white"/>
</linearGradient>
</defs>
</svg>
