<svg width="57" height="38" viewBox="0 0 57 38" fill="none" xmlns="http://www.w3.org/2000/svg">
<path d="M15 35.3557H17.0938V31.7057H19.46C22.0815 31.7057 24.2264 30.3754 24.2264 27.8285C24.2264 25.5087 22.4731 24 19.6983 24H15V35.3557ZM17.0938 29.905V25.8169H19.5281C21.0942 25.8169 22.0986 26.5145 22.0986 27.8447C22.0986 29.0614 21.1112 29.905 19.5281 29.905H17.0938Z" fill="#4D4D4D"/>
<path d="M33.5074 35.3557V30.2781C33.5074 27.9907 32.2136 26.6605 29.5581 26.6605C28.0941 26.6605 27.1238 26.9525 26.1364 27.3743L26.6982 28.9479C27.5153 28.6234 28.2643 28.4125 29.2687 28.4125C30.6986 28.4125 31.4816 29.0614 31.4816 30.2457V30.4079C30.7837 30.197 30.0858 30.051 28.9963 30.051C26.9025 30.051 25.3534 30.9594 25.3534 32.8575C25.3534 34.6095 26.8514 35.5342 28.5537 35.5342C29.9155 35.5342 30.8518 34.9988 31.4646 34.3013V35.3557H33.5074ZM31.5157 32.2572C31.5157 33.3279 30.4943 34.0579 29.1325 34.0579C28.1622 34.0579 27.3961 33.6037 27.3961 32.7926C27.3961 31.9328 28.1622 31.4299 29.4559 31.4299C30.256 31.4299 30.988 31.5759 31.5157 31.7706V32.2572Z" fill="#4D4D4D"/>
<path d="M37.4632 38C38.9101 38 39.7102 37.3511 40.4252 35.5991L44 26.7903H41.8551L39.523 33.1495L36.9695 26.7903H34.7736L38.5186 35.3557C38.1782 36.102 37.8207 36.3453 37.2419 36.3453C36.8163 36.3453 36.4078 36.2155 36.0333 36.0209L35.3353 37.4809C35.9652 37.8053 36.595 38 37.4632 38Z" fill="#4D4D4D"/>
<path d="M56.5492 9.5H36.6992V10.7V19.8H42.9992V14H45.6492L49.1992 19.8H56.3492L52.1492 13.5C54.1492 12.8 55.7492 11.35 56.5492 9.5Z" fill="#006848"/>
<path d="M54.4996 2.00001C53.2496 0.850012 51.6496 0.200012 49.8496 0.200012H36.3496C36.3996 0.750012 36.4496 1.25001 36.5496 1.75001C36.5996 1.85001 36.5996 1.95001 36.6496 2.10001C36.6496 2.15001 36.6496 2.20001 36.6996 2.25001C37.7996 5.80001 41.1496 8.40001 45.0496 8.40001H56.6496C56.6996 8.00001 56.7496 7.60001 56.7496 7.20001C56.7496 5.10001 55.8996 3.25001 54.4996 2.00001Z" fill="url(#paint0_linear)"/>
<path d="M15.55 2.75001L12.95 11.75H12.5L9.9 2.75001C9.5 1.25001 8.1 0.200012 6.5 0.200012H0.25V19.85H6.5V8.20001H6.95L10.5 19.8H14.95L18.5 8.20001H19V19.8H25.25V0.200012H19C17.4 0.200012 16 1.25001 15.55 2.75001Z" fill="#006848"/>
<path d="M34.1504 0.200012H27.9004V19.85H34.1504V0.200012Z" fill="#006848"/>
<defs>
<linearGradient id="paint0_linear" x1="43.0783" y1="4.25421" x2="63.4996" y2="4.25421" gradientUnits="userSpaceOnUse">
<stop offset="0.0107527" stop-color="#00AFFF"/>
<stop offset="1" stop-color="#1F5BD7"/>
</linearGradient>
</defs>
</svg>
