<svg width="12" height="12" viewBox="0 0 12 12" fill="none" xmlns="http://www.w3.org/2000/svg">
<path d="M8.58887 1.03125L7.84375 1.69629C8.87025 2.84629 9.5 4.35663 9.5 6.01562C9.5 7.67462 8.87025 9.18644 7.84375 10.3359L8.58887 11C9.77337 9.6735 10.5 7.93013 10.5 6.01562C10.5 4.10113 9.77337 2.35825 8.58887 1.03125ZM7.09766 2.36133L6.35254 3.02539C7.06354 3.82139 7.5 4.86713 7.5 6.01562C7.5 7.16412 7.06354 8.21084 6.35254 9.00684L7.09766 9.6709C7.96666 8.6984 8.5 7.41963 8.5 6.01562C8.5 4.61162 7.96666 3.33383 7.09766 2.36133ZM5.6084 3.69043L4.8584 4.35938C5.2529 4.80188 5.5 5.37762 5.5 6.01562C5.5 6.28608 5.44755 6.54232 5.36621 6.78516L2.94629 4.62305C2.94694 4.62208 2.94759 4.62108 2.94824 4.62012L2.18848 3.94531C1.76648 4.52231 1.51367 5.2315 1.51367 6C1.51367 6.7685 1.76648 7.47719 2.18848 8.05469L2.94824 7.37988C2.67974 6.98388 2.51367 6.5135 2.51367 6C2.51367 5.8674 2.52588 5.73761 2.54688 5.61133L4.85742 7.67285L5.60742 8.3418C6.16042 7.7228 6.5 6.90912 6.5 6.01562C6.5 5.12213 6.1609 4.30943 5.6084 3.69043Z" fill="#009900"/>
</svg>
