<svg width="139" height="20" viewBox="0 0 139 20" fill="none" xmlns="http://www.w3.org/2000/svg">
<g clip-path="url(#clip0)">
<path d="M118.009 0.367534V1.53139C116.815 0.551302 115.314 0 113.752 0C109.893 0 106.738 3.36907 106.738 7.50383C106.738 11.6386 109.862 15.0077 113.752 15.0077C115.314 15.0077 116.815 14.4564 118.009 13.4763V14.7626H121.225V0.367534H118.009ZM114.119 12.1899C111.792 12.1899 109.893 10.1072 109.893 7.50383C109.893 4.90046 111.792 2.84839 114.119 2.84839C116.447 2.84839 118.346 4.93109 118.346 7.53446C118.346 10.1378 116.447 12.1899 114.119 12.1899ZM97.9173 0C96.3553 0 94.8239 0.551302 93.6294 1.59265V0.367534H90.3829V20H93.5988V13.4456C94.7933 14.4564 96.3247 15.0077 97.8867 15.0383C101.746 15.0383 104.9 11.6692 104.9 7.53446C104.9 3.39969 101.807 0 97.9173 0ZM97.5498 12.1899C95.222 12.1899 93.3231 10.1072 93.3231 7.50383C93.3231 4.90046 95.222 2.81776 97.5498 2.81776C99.8775 2.81776 101.776 4.90046 101.776 7.50383C101.776 10.1072 99.8775 12.1899 97.5498 12.1899ZM134.916 0.367534L130.781 10.1685L126.371 0.367534H123.185L129.25 13.8438L126.646 20H129.801L138.07 0.367534H134.916ZM69.9234 2.35835L70.0766 11.853H70.0153L67.2282 2.35835H62.7259V14.3338H65.6968L65.5436 4.5023H65.6049L68.6064 14.3338H72.925V2.35835H69.9234ZM12.9556 2.35835L10.7198 14.4564H13.9969L15.6508 3.46095H15.7121L17.3354 14.4564H20.5819L18.3461 2.35835H12.9556ZM31.2404 2.35835L29.7397 11.608H29.6784L28.2083 2.35835H23.2466L22.9709 14.4564H26.0031L26.0643 3.58346H26.1256L28.1776 14.4564H31.2404L33.2619 3.58346H33.3231L33.3844 14.4564H36.4165L36.1409 2.35835H31.2404ZM5.63553 11.026C5.72741 11.3323 5.72741 11.6386 5.66616 11.9449C5.57427 12.343 5.29862 12.7412 4.47167 12.7412C3.70597 12.7412 3.24655 12.3124 3.24655 11.6386V10.4441H0V11.3629C0 14.0582 2.11332 14.8851 4.41041 14.8851C6.61562 14.8851 8.39204 14.1501 8.69831 12.1286C8.82083 11.4548 8.82083 10.8116 8.69831 10.1378C8.17764 7.59571 3.58346 6.86064 3.24655 5.42113C3.21593 5.20674 3.21593 4.99234 3.24655 4.77795C3.33844 4.37979 3.58346 3.951 4.34916 3.951C4.93109 3.88974 5.42113 4.31853 5.48239 4.86983C5.48239 4.93109 5.48239 4.99234 5.48239 5.0536V5.78867H8.51455V4.93109C8.51455 2.29709 6.1562 1.8683 4.44104 1.8683C2.29709 1.8683 0.520674 2.57274 0.214395 4.56355C0.0918836 5.11485 0.0918836 5.66616 0.214395 6.21746C0.704441 8.75957 4.99234 9.46401 5.63553 11.026ZM44.9617 11.026C45.0536 11.3017 45.0536 11.608 44.9923 11.9142C44.9005 12.3124 44.6248 12.7106 43.8285 12.7106C43.0934 12.7106 42.634 12.2818 42.634 11.6386V10.4747H39.4181V11.3936C39.4181 14.0582 41.5314 14.8545 43.7672 14.8545C45.9418 14.8545 47.7182 14.1194 47.9939 12.1286C48.1164 11.4855 48.1164 10.8116 47.9939 10.1685C47.4732 7.6876 42.9096 6.9219 42.6034 5.51302C42.5727 5.29862 42.5727 5.11485 42.6034 4.90046C42.6953 4.5023 42.9403 4.10413 43.706 4.10413C44.2573 4.04288 44.7779 4.47167 44.8086 5.02297C44.8086 5.08423 44.8086 5.11485 44.8086 5.17611V5.91118H47.7795V5.0536C47.7795 2.45023 45.4518 2.02144 43.7366 2.02144C41.5926 2.02144 39.8775 2.72588 39.5406 4.68606C39.4487 5.20674 39.4487 5.75804 39.5712 6.30934C40.0919 8.75957 44.3492 9.46401 44.9617 11.026ZM55.1302 12.6187C55.6815 12.6799 56.1715 12.2818 56.294 11.7611C56.3247 11.608 56.3247 11.4548 56.3247 11.3017V2.35835H59.3874V11.026C59.3874 11.2404 59.3568 11.6998 59.3568 11.8224C59.1424 14.0888 57.366 14.8239 55.1302 14.8239C52.8943 14.8239 51.1179 14.0888 50.9035 11.8224C50.9035 11.6998 50.8729 11.2404 50.8729 11.026V2.35835H53.9357V11.3017C53.9357 11.4548 53.9357 11.608 53.9663 11.7611C54.0888 12.3124 54.5789 12.6799 55.1302 12.6187ZM80.3675 12.4962C81.2557 12.4962 81.562 11.9449 81.5926 11.6386C81.6233 11.4855 81.6233 11.3323 81.6233 11.1792V9.43338H80.3982V7.65697H84.6861V10.9035C84.6861 11.1179 84.6861 11.3017 84.6554 11.6998C84.4717 13.9051 82.5421 14.7014 80.3982 14.7014C78.2542 14.7014 76.3553 13.9051 76.1409 11.6998C76.1103 11.3017 76.1103 11.1179 76.1103 10.9035V5.78867C76.1103 5.51302 76.1409 5.26799 76.1715 4.99234C76.4472 2.72588 78.2848 1.99081 80.4288 1.99081C82.5727 1.99081 84.441 2.69525 84.6861 4.99234C84.7167 5.26799 84.7167 5.51302 84.7167 5.78867V6.18683H81.6539V5.51302C81.6539 5.35988 81.6539 5.20674 81.6233 5.0536C81.562 4.77795 81.3476 4.16539 80.3982 4.16539C79.8162 4.10413 79.3262 4.5023 79.2037 5.0536C79.173 5.23737 79.1424 5.42113 79.1424 5.63553V11.1792C79.1424 11.3323 79.1424 11.4855 79.173 11.6386C79.173 11.9449 79.4793 12.4962 80.3675 12.4962Z" fill="#034EA2"/>
</g>
<defs>
<clipPath id="clip0">
<rect width="138.07" height="20" fill="white"/>
</clipPath>
</defs>
</svg>
